<svg fill="none" xmlns="http://www.w3.org/2000/svg" viewBox="0 0 144 23"><path d="m4.4 22.637 1.341-3.899h8.248l1.312 3.9h4.692L12.415 1.48H7.548L0 22.637h4.4Zm2.565-7.616 2.886-8.523 2.885 8.523h-5.77ZM21.043 7.284v15.353h4.197v-8.13c0-2.297 1.049-3.929 3.002-3.929 2.185 0 2.477 1.632 2.477 2.992v9.067h4.197V12.633c0-2.78-1.69-5.712-5.334-5.712-2.156 0-3.614.937-4.575 2.448V7.284h-3.964ZM35.958 10.7h2.39v7.313c0 2.871 1.399 4.987 5.304 4.987 1.37 0 2.915-.363 4.139-1.33l-1.02-3.204c-1.02.635-1.632.847-2.332.847-1.544 0-1.894-.726-1.894-1.995v-6.619h4.05V7.284h-4.05V1.48l-4.197 1.48v4.323h-2.39v3.415ZM50.784 0c-1.487 0-2.507 1.148-2.507 2.539 0 1.39 1.02 2.539 2.507 2.539 1.544 0 2.564-1.149 2.564-2.54 0-1.39-1.02-2.538-2.564-2.538Zm-2.099 7.284v15.353h4.197V7.284h-4.197ZM67.118 17.832c0-2.509-1.66-3.778-4.342-4.443l-2.419-.604c-.933-.242-1.399-.544-1.399-1.27 0-.635.496-1.239 1.924-1.239 1.865 0 3.38 1.058 4.226 1.693l1.865-3.083c-1.283-.907-3.206-1.965-6.12-1.965-3.877 0-5.771 2.478-5.771 4.745 0 3.053 2.244 4.201 4.226 4.655l2.098.483c1.195.272 1.749.635 1.749 1.39 0 .726-.554 1.481-2.244 1.481-1.778 0-3.498-.846-4.722-1.873l-1.894 2.992C55.811 21.972 58.113 23 61.173 23c4.022 0 5.945-2.448 5.945-5.168ZM67.617 10.7h2.39v7.313c0 2.871 1.398 4.987 5.304 4.987 1.37 0 2.914-.363 4.138-1.33l-1.02-3.204c-1.02.635-1.632.847-2.331.847-1.545 0-1.895-.726-1.895-1.995v-6.619h4.051V7.284h-4.05V1.48l-4.197 1.48v4.323h-2.39v3.415ZM89.174 20.522v2.115h3.847v-9.671c0-3.113-1.66-6.045-6.324-6.045-3.322 0-5.8 1.934-7.082 3.355l2.215 2.478c1.02-.967 2.652-2.266 4.46-2.266 1.69 0 2.476.816 2.622 2.115l-4.576 1.118c-2.506.605-4.72 1.965-4.72 4.836 0 2.358 1.631 4.443 4.808 4.443 2.156 0 3.73-.907 4.75-2.478Zm-5.362-2.418c0-.877.612-1.45 1.865-1.753l3.264-.786v.333c0 2.327-1.661 3.747-3.38 3.747-1.195 0-1.75-.544-1.75-1.541ZM93.574 7.284l5.567 15.353h4.313l5.596-15.353h-4.314l-3.351 10.276-3.293-10.276h-4.518ZM112.19 0c-1.486 0-2.506 1.148-2.506 2.539 0 1.39 1.02 2.539 2.506 2.539 1.545 0 2.565-1.149 2.565-2.54 0-1.39-1.02-2.538-2.565-2.538Zm-2.098 7.284v15.353h4.197V7.284h-4.197ZM116.926.574v22.063h4.197V.574h-4.197ZM123.76.574v22.063h4.197V.574h-4.197ZM137.355 23c2.711 0 4.838-.846 6.412-2.841l-2.332-2.539c-.874 1.088-2.185 1.934-3.759 1.934-1.953 0-3.498-.936-3.818-3.536h10.055c.029-.241.087-.876.087-1.753 0-4.563-2.827-7.344-6.791-7.344-4.342 0-7.49 3.325-7.49 8.04 0 5.017 3.061 8.039 7.636 8.039Zm-.204-12.845c1.312 0 2.623.725 2.74 3.053h-5.946c.437-2.177 1.72-3.053 3.206-3.053Z" fill="currentColor"/></svg>