<svg width="0" height="0" style="position:absolute"><symbol fill="none" viewBox="0 0 144 23" id="Antistaville_logo" xmlns="http://www.w3.org/2000/svg"><path d="m4.4 22.637 1.341-3.899h8.248l1.312 3.9h4.692L12.415 1.48H7.548L0 22.637h4.4Zm2.565-7.616 2.886-8.523 2.885 8.523h-5.77Zm14.078-7.737v15.353h4.197v-8.13c0-2.297 1.049-3.929 3.002-3.929 2.185 0 2.477 1.632 2.477 2.992v9.067h4.197V12.633c0-2.78-1.69-5.712-5.334-5.712-2.156 0-3.614.937-4.575 2.448V7.284h-3.964ZM35.958 10.7h2.39v7.313c0 2.871 1.399 4.987 5.304 4.987 1.37 0 2.915-.363 4.139-1.33l-1.02-3.204c-1.02.635-1.632.847-2.332.847-1.544 0-1.894-.726-1.894-1.995v-6.619h4.05V7.284h-4.05V1.48l-4.197 1.48v4.323h-2.39v3.415ZM50.784 0c-1.487 0-2.507 1.148-2.507 2.539 0 1.39 1.02 2.539 2.507 2.539 1.544 0 2.564-1.149 2.564-2.54 0-1.39-1.02-2.538-2.564-2.538Zm-2.099 7.284v15.353h4.197V7.284h-4.197Zm18.433 10.548c0-2.509-1.66-3.778-4.342-4.443l-2.419-.604c-.933-.242-1.399-.544-1.399-1.27 0-.635.496-1.239 1.924-1.239 1.865 0 3.38 1.058 4.226 1.693l1.865-3.083c-1.283-.907-3.206-1.965-6.12-1.965-3.877 0-5.771 2.478-5.771 4.745 0 3.053 2.244 4.201 4.226 4.655l2.098.483c1.195.272 1.749.635 1.749 1.39 0 .726-.554 1.481-2.244 1.481-1.778 0-3.498-.846-4.722-1.873l-1.894 2.992C55.811 21.972 58.113 23 61.173 23c4.022 0 5.945-2.448 5.945-5.168Zm.499-7.132h2.39v7.313c0 2.871 1.398 4.987 5.304 4.987 1.37 0 2.914-.363 4.138-1.33l-1.02-3.204c-1.02.635-1.632.847-2.331.847-1.545 0-1.895-.726-1.895-1.995v-6.619h4.051V7.284h-4.05V1.48l-4.197 1.48v4.323h-2.39v3.415Zm21.557 9.822v2.115h3.847v-9.671c0-3.113-1.66-6.045-6.324-6.045-3.322 0-5.8 1.934-7.082 3.355l2.215 2.478c1.02-.967 2.652-2.266 4.46-2.266 1.69 0 2.476.816 2.622 2.115l-4.576 1.118c-2.506.605-4.72 1.965-4.72 4.836 0 2.358 1.631 4.443 4.808 4.443 2.156 0 3.73-.907 4.75-2.478Zm-5.362-2.418c0-.877.612-1.45 1.865-1.753l3.264-.786v.333c0 2.327-1.661 3.747-3.38 3.747-1.195 0-1.75-.544-1.75-1.541Zm9.762-10.82 5.567 15.353h4.313l5.596-15.353h-4.314l-3.351 10.276-3.293-10.276h-4.518ZM112.19 0c-1.486 0-2.506 1.148-2.506 2.539 0 1.39 1.02 2.539 2.506 2.539 1.545 0 2.565-1.149 2.565-2.54 0-1.39-1.02-2.538-2.565-2.538Zm-2.098 7.284v15.353h4.197V7.284h-4.197Zm6.834-6.71v22.063h4.197V.574h-4.197Zm6.834 0v22.063h4.197V.574h-4.197ZM137.355 23c2.711 0 4.838-.846 6.412-2.841l-2.332-2.539c-.874 1.088-2.185 1.934-3.759 1.934-1.953 0-3.498-.936-3.818-3.536h10.055c.029-.241.087-.876.087-1.753 0-4.563-2.827-7.344-6.791-7.344-4.342 0-7.49 3.325-7.49 8.04 0 5.017 3.061 8.039 7.636 8.039Zm-.204-12.845c1.312 0 2.623.725 2.74 3.053h-5.946c.437-2.177 1.72-3.053 3.206-3.053Z" fill="currentColor"/></symbol><symbol fill="none" viewBox="0 0 24 24" id="burger" xmlns="http://www.w3.org/2000/svg"><path d="M23 13H1c-.6 0-1-.4-1-1s.4-1 1-1h22c.6 0 1 .4 1 1s-.4 1-1 1Zm0-7H1c-.6 0-1-.4-1-1s.4-1 1-1h22c.6 0 1 .4 1 1s-.4 1-1 1Zm0 14H1c-.6 0-1-.4-1-1s.4-1 1-1h22c.6 0 1 .4 1 1s-.4 1-1 1Z" fill="currentColor"/></symbol><symbol fill="none" viewBox="0 0 12 12" id="chevron" xmlns="http://www.w3.org/2000/svg"><path d="M4.25 2 8 6l-3.75 4" stroke="currentColor" stroke-linecap="square"/></symbol><symbol fill="none" viewBox="0 0 17 16" id="chevron-bold" xmlns="http://www.w3.org/2000/svg"><path d="m14.237 6-1.488-1.4-4.25 4-4.25-4L2.762 6l5.737 5.4L14.237 6Z" fill="currentColor"/></symbol><symbol fill="none" viewBox="0 0 24 24" id="facebook" xmlns="http://www.w3.org/2000/svg"><g clip-path="url(#ea)"><path d="M19 0H5a5 5 0 0 0-5 5v14a5 5 0 0 0 5 5h14a5 5 0 0 0 5-5V5a5 5 0 0 0-5-5Zm-3 7h-1.924C13.461 7 13 7.252 13 7.889V9h3l-.238 3H13v8h-3v-8H8V9h2V7.077C10 5.055 11.064 4 13.461 4H16v3Z" fill="currentColor"/></g><defs><clipPath id="ea"><path fill="currentColor" d="M0 0h24v24H0z"/></clipPath></defs></symbol><symbol fill="currentColor" viewBox="0 0 20 20" id="instagram" xmlns="http://www.w3.org/2000/svg"><g clip-path="url(#fa)"><path d="M10 1.802c2.67 0 2.987.01 4.042.059 2.71.123 3.975 1.409 4.099 4.099.048 1.054.057 1.37.057 4.04 0 2.672-.01 2.988-.057 4.042-.124 2.687-1.387 3.975-4.1 4.099-1.054.048-1.37.058-4.041.058-2.67 0-2.987-.01-4.04-.058-2.717-.124-3.977-1.416-4.1-4.1-.048-1.054-.058-1.37-.058-4.041 0-2.67.01-2.986.058-4.04.124-2.69 1.387-3.977 4.1-4.1 1.054-.048 1.37-.058 4.04-.058ZM10 0C7.284 0 6.944.012 5.878.06 2.246.227.228 2.242.06 5.877.01 6.944 0 7.284 0 10s.012 3.057.06 4.123c.167 3.632 2.182 5.65 5.817 5.817 1.067.048 1.407.06 4.123.06s3.057-.012 4.123-.06c3.629-.167 5.652-2.182 5.816-5.817.05-1.066.061-1.407.061-4.123s-.012-3.056-.06-4.122C19.777 2.249 17.76.228 14.124.06 13.057.01 12.716 0 10 0Zm0 4.865a5.135 5.135 0 1 0 0 10.27 5.135 5.135 0 0 0 0-10.27Zm0 8.468a3.333 3.333 0 1 1 0-6.665 3.333 3.333 0 0 1 0 6.665Zm5.338-9.87a1.2 1.2 0 1 0 0 2.4 1.2 1.2 0 0 0 0-2.4Z"/></g><defs><clipPath id="fa"><path d="M0 0h20v20H0z"/></clipPath></defs></symbol><symbol fill="none" viewBox="0 0 24 24" id="linkedin" xmlns="http://www.w3.org/2000/svg"><g clip-path="url(#ga)"><path d="M19 0H5a5 5 0 0 0-5 5v14a5 5 0 0 0 5 5h14a5 5 0 0 0 5-5V5a5 5 0 0 0-5-5ZM8 19H5V8h3v11ZM6.5 6.732c-.966 0-1.75-.79-1.75-1.764s.784-1.764 1.75-1.764 1.75.79 1.75 1.764-.783 1.764-1.75 1.764ZM20 19h-3v-5.604c0-3.368-4-3.113-4 0V19h-3V8h3v1.765c1.396-2.586 7-2.777 7 2.476V19Z" fill="currentColor"/></g><defs><clipPath id="ga"><path fill="currentColor" d="M0 0h24v24H0z"/></clipPath></defs></symbol><symbol fill="none" viewBox="0 0 24 24" id="search" xmlns="http://www.w3.org/2000/svg"><rect x="14.812" y="16.226" width="2" height="9.5" rx="1" transform="rotate(-45 14.812 16.226)" fill="currentColor"/><path fill-rule="evenodd" clip-rule="evenodd" d="M10 17a7 7 0 1 0 0-14 7 7 0 0 0 0 14Zm0 2a9 9 0 1 0 0-18 9 9 0 0 0 0 18Z" fill="currentColor"/></symbol><symbol fill="currentColor" viewBox="0 0 20 20" id="youtube" xmlns="http://www.w3.org/2000/svg"><path d="M16.346 2.653c-3.004-.205-9.693-.204-12.692 0C.407 2.875.024 4.837 0 10c.024 5.154.403 7.124 3.654 7.347 3 .204 9.688.205 12.692 0 3.247-.222 3.63-2.184 3.654-7.347-.024-5.154-.403-7.124-3.654-7.347ZM7.5 13.333V6.667l6.667 3.327-6.667 3.34Z"/></symbol></svg>