<svg width="0" height="0" style="position:absolute"><symbol fill="none" viewBox="0 0 12 12" id="chevron" xmlns="http://www.w3.org/2000/svg"><path d="M4.25 2 8 6l-3.75 4" stroke="currentColor" stroke-linecap="square"/></symbol><symbol fill="none" viewBox="0 0 17 16" id="chevron-bold" xmlns="http://www.w3.org/2000/svg"><path d="m14.237 6-1.488-1.4-4.25 4-4.25-4L2.762 6l5.737 5.4L14.237 6Z" fill="currentColor"/></symbol><symbol fill="none" viewBox="0 0 24 24" id="facebook" xmlns="http://www.w3.org/2000/svg"><g clip-path="url(#ca)"><path d="M19 0H5a5 5 0 0 0-5 5v14a5 5 0 0 0 5 5h14a5 5 0 0 0 5-5V5a5 5 0 0 0-5-5Zm-3 7h-1.924C13.461 7 13 7.252 13 7.889V9h3l-.238 3H13v8h-3v-8H8V9h2V7.077C10 5.055 11.064 4 13.461 4H16v3Z" fill="currentColor"/></g><defs><clipPath id="ca"><path fill="currentColor" d="M0 0h24v24H0z"/></clipPath></defs></symbol><symbol fill="currentColor" viewBox="0 0 20 20" id="instagram" xmlns="http://www.w3.org/2000/svg"><g clip-path="url(#da)"><path d="M10 1.802c2.67 0 2.987.01 4.042.059 2.71.123 3.975 1.409 4.099 4.099.048 1.054.057 1.37.057 4.04 0 2.672-.01 2.988-.057 4.042-.124 2.687-1.387 3.975-4.1 4.099-1.054.048-1.37.058-4.041.058-2.67 0-2.987-.01-4.04-.058-2.717-.124-3.977-1.416-4.1-4.1-.048-1.054-.058-1.37-.058-4.041 0-2.67.01-2.986.058-4.04.124-2.69 1.387-3.977 4.1-4.1 1.054-.048 1.37-.058 4.04-.058ZM10 0C7.284 0 6.944.012 5.878.06 2.246.227.228 2.242.06 5.877.01 6.944 0 7.284 0 10s.012 3.057.06 4.123c.167 3.632 2.182 5.65 5.817 5.817 1.067.048 1.407.06 4.123.06s3.057-.012 4.123-.06c3.629-.167 5.652-2.182 5.816-5.817.05-1.066.061-1.407.061-4.123s-.012-3.056-.06-4.122C19.777 2.249 17.76.228 14.124.06 13.057.01 12.716 0 10 0Zm0 4.865a5.135 5.135 0 1 0 0 10.27 5.135 5.135 0 0 0 0-10.27Zm0 8.468a3.333 3.333 0 1 1 0-6.665 3.333 3.333 0 0 1 0 6.665Zm5.338-9.87a1.2 1.2 0 1 0 0 2.4 1.2 1.2 0 0 0 0-2.4Z"/></g><defs><clipPath id="da"><path d="M0 0h20v20H0z"/></clipPath></defs></symbol><symbol fill="none" viewBox="0 0 24 24" id="linkedin" xmlns="http://www.w3.org/2000/svg"><g clip-path="url(#ea)"><path d="M19 0H5a5 5 0 0 0-5 5v14a5 5 0 0 0 5 5h14a5 5 0 0 0 5-5V5a5 5 0 0 0-5-5ZM8 19H5V8h3v11ZM6.5 6.732c-.966 0-1.75-.79-1.75-1.764s.784-1.764 1.75-1.764 1.75.79 1.75 1.764-.783 1.764-1.75 1.764ZM20 19h-3v-5.604c0-3.368-4-3.113-4 0V19h-3V8h3v1.765c1.396-2.586 7-2.777 7 2.476V19Z" fill="currentColor"/></g><defs><clipPath id="ea"><path fill="currentColor" d="M0 0h24v24H0z"/></clipPath></defs></symbol><symbol fill="none" viewBox="0 0 16 16" id="search" xmlns="http://www.w3.org/2000/svg"><g clip-path="url(#fa)"><path d="M12.7 11.3c.9-1.2 1.4-2.6 1.4-4.2 0-3.9-3.1-7.1-7-7.1S0 3.2 0 7.1c0 3.9 3.2 7.1 7.1 7.1 1.6 0 3.1-.5 4.2-1.4l3 3c.2.2.5.3.7.3.2 0 .5-.1.7-.3.4-.4.4-1 0-1.4l-3-3.1Zm-5.6.8c-2.8 0-5.1-2.2-5.1-5S4.3 2 7.1 2s5.1 2.3 5.1 5.1-2.3 5-5.1 5Z" fill="currentColor"/></g><defs><clipPath id="fa"><path fill="currentColor" d="M0 0h16v16H0z"/></clipPath></defs></symbol><symbol fill="currentColor" viewBox="0 0 20 20" id="youtube" xmlns="http://www.w3.org/2000/svg"><path d="M16.346 2.653c-3.004-.205-9.693-.204-12.692 0C.407 2.875.024 4.837 0 10c.024 5.154.403 7.124 3.654 7.347 3 .204 9.688.205 12.692 0 3.247-.222 3.63-2.184 3.654-7.347-.024-5.154-.403-7.124-3.654-7.347ZM7.5 13.333V6.667l6.667 3.327-6.667 3.34Z"/></symbol></svg>